<svg width="682" height="212" viewBox="0 0 682 212" fill="none" xmlns="http://www.w3.org/2000/svg">
<g clip-path="url(#clip0_19_22)">
<path d="M105.995 0C47.5444 0 0 47.5005 0 105.897C0 164.293 47.5444 211.794 105.995 211.794C164.44 211.794 211.99 164.293 211.99 105.897C211.99 47.5005 164.44 0 105.995 0ZM105.995 199.516C54.3234 199.516 12.2893 157.515 12.2893 105.897C12.2893 54.2789 54.3234 12.278 105.995 12.278C157.661 12.278 199.695 54.2789 199.695 105.897C199.695 157.515 157.661 199.516 105.995 199.516Z" fill="url(#paint0_linear_19_22)"/>
<path d="M154.406 35.8189C138.65 39.3802 124.202 46.388 111.568 54.6746C121.275 61.7225 166.649 96.8819 180.661 146.986C187.4 134.8 191.251 120.801 191.251 105.897C191.251 76.8277 176.654 51.1936 154.406 35.8189Z" fill="url(#paint1_linear_19_22)"/>
<path d="M31.3232 64.8078C24.5902 76.994 20.7329 90.9924 20.7329 105.897C20.7329 134.966 35.3354 160.6 57.5837 175.975C73.34 172.414 87.7818 165.406 100.421 157.119C90.7149 150.065 45.3403 114.906 31.3232 64.8078Z" fill="url(#paint2_linear_19_22)"/>
<path d="M64.8679 180.5C77.0654 187.226 91.071 191.074 105.995 191.074C135.091 191.074 160.749 176.491 176.138 154.269C172.573 138.527 165.553 124.087 157.265 111.46C150.204 121.157 115.013 166.49 64.8679 180.5Z" fill="url(#paint3_linear_19_22)"/>
<path d="M147.122 31.2943C134.925 24.5675 120.913 20.7195 105.995 20.7195C76.899 20.7195 51.2412 35.3028 35.8522 57.5247C39.4168 73.2665 46.4311 87.7064 54.7254 100.334C61.7798 90.6369 96.9775 45.3041 147.122 31.2943Z" fill="url(#paint4_linear_19_22)"/>
<path d="M105.995 76.432C89.6991 76.432 76.4971 89.6218 76.4971 105.897C76.4971 122.172 89.6991 135.362 105.995 135.362C122.285 135.362 135.487 122.172 135.487 105.897C135.487 102.943 134.925 100.151 134.121 97.4669C131.756 99.2446 128.857 100.334 125.677 100.334C117.888 100.334 111.569 94.0088 111.569 86.2326C111.569 83.0498 112.653 80.1538 114.427 77.8026C111.741 76.994 108.945 76.432 105.995 76.432Z" fill="url(#paint5_linear_19_22)"/>
</g>
<path d="M256.144 142.96C252.496 142.96 249.104 142.48 245.968 141.52C242.896 140.56 240.08 139.12 237.52 137.2C235.024 135.216 232.784 132.784 230.8 129.904L237.904 121.744C241.04 126.224 244.048 129.328 246.928 131.056C249.808 132.784 253.232 133.648 257.2 133.648C259.632 133.648 261.84 133.264 263.824 132.496C265.808 131.728 267.376 130.672 268.528 129.328C269.68 127.984 270.256 126.448 270.256 124.72C270.256 123.568 270.064 122.48 269.68 121.456C269.296 120.432 268.688 119.504 267.856 118.672C267.088 117.84 266.064 117.072 264.784 116.368C263.568 115.664 262.128 115.056 260.464 114.544C258.8 113.968 256.88 113.488 254.704 113.104C251.248 112.4 248.24 111.472 245.68 110.32C243.12 109.168 240.976 107.728 239.248 106C237.52 104.272 236.24 102.32 235.408 100.144C234.576 97.904 234.16 95.408 234.16 92.656C234.16 89.968 234.736 87.472 235.888 85.168C237.104 82.864 238.736 80.88 240.784 79.216C242.896 77.488 245.36 76.176 248.176 75.28C250.992 74.32 254.032 73.84 257.296 73.84C260.752 73.84 263.92 74.288 266.8 75.184C269.68 76.08 272.24 77.424 274.48 79.216C276.72 80.944 278.576 83.088 280.048 85.648L272.752 92.848C271.472 90.736 270.032 88.976 268.432 87.568C266.832 86.096 265.072 85.008 263.152 84.304C261.232 83.536 259.184 83.152 257.008 83.152C254.512 83.152 252.336 83.536 250.48 84.304C248.624 85.072 247.152 86.16 246.064 87.568C245.04 88.912 244.528 90.512 244.528 92.368C244.528 93.712 244.784 94.96 245.296 96.112C245.808 97.2 246.576 98.192 247.6 99.088C248.688 99.92 250.128 100.688 251.92 101.392C253.712 102.032 255.856 102.608 258.352 103.12C261.872 103.888 265.008 104.88 267.76 106.096C270.512 107.248 272.848 108.624 274.768 110.224C276.688 111.824 278.128 113.616 279.088 115.6C280.112 117.584 280.624 119.728 280.624 122.032C280.624 126.32 279.632 130.032 277.648 133.168C275.664 136.304 272.848 138.736 269.2 140.464C265.552 142.128 261.2 142.96 256.144 142.96ZM292.818 142V91.6H302.706V101.968L300.978 103.12C301.618 100.88 302.866 98.832 304.722 96.976C306.578 95.056 308.786 93.52 311.346 92.368C313.906 91.152 316.53 90.544 319.218 90.544C323.058 90.544 326.258 91.312 328.818 92.848C331.378 94.32 333.298 96.592 334.578 99.664C335.858 102.736 336.498 106.608 336.498 111.28V142H326.61V111.952C326.61 109.072 326.226 106.704 325.458 104.848C324.69 102.928 323.506 101.552 321.906 100.72C320.306 99.824 318.322 99.44 315.954 99.568C314.034 99.568 312.274 99.888 310.674 100.528C309.074 101.104 307.666 101.936 306.45 103.024C305.298 104.112 304.37 105.392 303.666 106.864C303.026 108.272 302.706 109.808 302.706 111.472V142H297.81C296.978 142 296.146 142 295.314 142C294.482 142 293.65 142 292.818 142ZM369.304 142.96C365.144 142.96 361.336 141.808 357.88 139.504C354.488 137.2 351.768 134.064 349.72 130.096C347.672 126.128 346.648 121.648 346.648 116.656C346.648 111.6 347.672 107.12 349.72 103.216C351.832 99.248 354.648 96.144 358.168 93.904C361.752 91.664 365.752 90.544 370.168 90.544C372.792 90.544 375.192 90.928 377.368 91.696C379.544 92.464 381.432 93.552 383.032 94.96C384.696 96.304 386.04 97.872 387.064 99.664C388.152 101.456 388.824 103.376 389.08 105.424L386.872 104.656V91.6H396.856V142H386.872V130L389.176 129.328C388.792 131.056 387.992 132.752 386.776 134.416C385.624 136.016 384.12 137.456 382.264 138.736C380.472 140.016 378.456 141.04 376.216 141.808C374.04 142.576 371.736 142.96 369.304 142.96ZM371.896 133.84C374.904 133.84 377.56 133.104 379.864 131.632C382.168 130.16 383.96 128.144 385.24 125.584C386.584 122.96 387.256 119.984 387.256 116.656C387.256 113.392 386.584 110.48 385.24 107.92C383.96 105.36 382.168 103.344 379.864 101.872C377.56 100.4 374.904 99.664 371.896 99.664C368.952 99.664 366.328 100.4 364.024 101.872C361.784 103.344 359.992 105.36 358.648 107.92C357.368 110.48 356.728 113.392 356.728 116.656C356.728 119.984 357.368 122.96 358.648 125.584C359.992 128.144 361.784 130.16 364.024 131.632C366.328 133.104 368.952 133.84 371.896 133.84ZM410.662 163.12V91.6H420.646V103.12L419.11 102.256C419.494 100.336 420.582 98.512 422.374 96.784C424.166 94.992 426.342 93.552 428.902 92.464C431.526 91.312 434.214 90.736 436.966 90.736C441.51 90.736 445.542 91.856 449.062 94.096C452.582 96.336 455.366 99.408 457.414 103.312C459.462 107.216 460.486 111.696 460.486 116.752C460.486 121.744 459.462 126.224 457.414 130.192C455.43 134.096 452.678 137.2 449.158 139.504C445.638 141.744 441.67 142.864 437.254 142.864C434.31 142.864 431.462 142.288 428.71 141.136C425.958 139.92 423.622 138.384 421.702 136.528C419.782 134.672 418.598 132.752 418.15 130.768L420.646 129.424V163.12H410.662ZM435.622 133.744C438.566 133.744 441.19 133.008 443.494 131.536C445.798 130.064 447.622 128.048 448.966 125.488C450.31 122.928 450.982 120.016 450.982 116.752C450.982 113.488 450.31 110.608 448.966 108.112C447.686 105.552 445.894 103.536 443.59 102.064C441.286 100.592 438.63 99.856 435.622 99.856C432.614 99.856 429.958 100.592 427.654 102.064C425.35 103.472 423.526 105.456 422.182 108.016C420.838 110.576 420.166 113.488 420.166 116.752C420.166 120.016 420.838 122.928 422.182 125.488C423.526 128.048 425.35 130.064 427.654 131.536C429.958 133.008 432.614 133.744 435.622 133.744Z" fill="black"/>
<path d="M500.985 142.96C496.313 142.96 492.025 142.128 488.121 140.464C484.217 138.8 480.825 136.432 477.945 133.36C475.065 130.224 472.825 126.544 471.225 122.32C469.689 118.096 468.921 113.456 468.921 108.4C468.921 103.6 469.753 99.152 471.417 95.056C473.145 90.896 475.513 87.248 478.521 84.112C481.529 80.976 485.017 78.544 488.984 76.816C492.953 75.088 497.241 74.224 501.849 74.224C505.113 74.224 508.281 74.736 511.353 75.76C514.489 76.72 517.305 78.096 519.801 79.888C522.361 81.616 524.441 83.6 526.041 85.84L519.129 93.04C517.273 91.184 515.385 89.648 513.465 88.432C511.609 87.152 509.689 86.192 507.705 85.552C505.785 84.912 503.833 84.592 501.849 84.592C498.713 84.592 495.769 85.2 493.017 86.416C490.329 87.568 487.961 89.2 485.913 91.312C483.929 93.424 482.361 95.952 481.209 98.896C480.057 101.776 479.481 104.944 479.481 108.4C479.481 112.048 480.025 115.376 481.113 118.384C482.265 121.328 483.865 123.856 485.913 125.968C487.961 128.08 490.393 129.712 493.209 130.864C496.089 131.952 499.257 132.496 502.713 132.496C504.825 132.496 506.905 132.208 508.953 131.632C511.001 131.056 512.921 130.224 514.713 129.136C516.505 128.048 518.137 126.768 519.609 125.296L524.793 133.744C523.321 135.472 521.305 137.04 518.745 138.448C516.249 139.856 513.433 140.976 510.297 141.808C507.225 142.576 504.121 142.96 500.985 142.96ZM555.773 142.96C551.613 142.96 547.805 141.808 544.349 139.504C540.957 137.2 538.237 134.064 536.189 130.096C534.141 126.128 533.117 121.648 533.117 116.656C533.117 111.6 534.141 107.12 536.189 103.216C538.301 99.248 541.117 96.144 544.637 93.904C548.221 91.664 552.221 90.544 556.637 90.544C559.261 90.544 561.661 90.928 563.837 91.696C566.013 92.464 567.901 93.552 569.501 94.96C571.165 96.304 572.509 97.872 573.533 99.664C574.621 101.456 575.293 103.376 575.549 105.424L573.341 104.656V91.6H583.325V142H573.341V130L575.645 129.328C575.261 131.056 574.461 132.752 573.245 134.416C572.093 136.016 570.589 137.456 568.733 138.736C566.941 140.016 564.925 141.04 562.685 141.808C560.509 142.576 558.205 142.96 555.773 142.96ZM558.365 133.84C561.373 133.84 564.029 133.104 566.333 131.632C568.637 130.16 570.429 128.144 571.709 125.584C573.053 122.96 573.725 119.984 573.725 116.656C573.725 113.392 573.053 110.48 571.709 107.92C570.429 105.36 568.637 103.344 566.333 101.872C564.029 100.4 561.373 99.664 558.365 99.664C555.421 99.664 552.797 100.4 550.493 101.872C548.253 103.344 546.461 105.36 545.117 107.92C543.837 110.48 543.197 113.392 543.197 116.656C543.197 119.984 543.837 122.96 545.117 125.584C546.461 128.144 548.253 130.16 550.493 131.632C552.797 133.104 555.421 133.84 558.365 133.84ZM596.939 142V91.6H606.923V102.352L605.099 103.504C605.611 101.84 606.411 100.24 607.499 98.704C608.651 97.168 610.027 95.824 611.627 94.672C613.291 93.456 615.051 92.496 616.907 91.792C618.827 91.088 620.779 90.736 622.763 90.736C625.643 90.736 628.171 91.216 630.347 92.176C632.523 93.136 634.315 94.576 635.723 96.496C637.131 98.416 638.155 100.816 638.795 103.696L637.259 103.312L637.931 101.68C638.635 100.208 639.595 98.832 640.811 97.552C642.091 96.208 643.531 95.024 645.131 94C646.731 92.976 648.427 92.176 650.219 91.6C652.011 91.024 653.771 90.736 655.499 90.736C659.275 90.736 662.379 91.504 664.811 93.04C667.307 94.576 669.163 96.912 670.379 100.048C671.659 103.184 672.299 107.088 672.299 111.76V142H662.315V112.336C662.315 109.456 661.931 107.12 661.163 105.328C660.459 103.472 659.371 102.096 657.899 101.2C656.427 100.304 654.539 99.856 652.235 99.856C650.443 99.856 648.747 100.176 647.147 100.816C645.611 101.392 644.267 102.224 643.115 103.312C641.963 104.4 641.067 105.68 640.427 107.152C639.787 108.56 639.467 110.128 639.467 111.856V142H629.483V112.144C629.483 109.52 629.099 107.312 628.331 105.52C627.563 103.664 626.443 102.256 624.971 101.296C623.499 100.336 621.707 99.856 619.595 99.856C617.803 99.856 616.139 100.176 614.603 100.816C613.067 101.392 611.723 102.224 610.571 103.312C609.419 104.336 608.523 105.584 607.883 107.056C607.243 108.464 606.923 110 606.923 111.664V142H596.939Z" fill="#6702AB"/>
<defs>
<linearGradient id="paint0_linear_19_22" x1="105.995" y1="0" x2="105.995" y2="211.794" gradientUnits="userSpaceOnUse">
<stop stop-color="#7200BE"/>
<stop offset="1" stop-color="#350058"/>
</linearGradient>
<linearGradient id="paint1_linear_19_22" x1="151.41" y1="35.8189" x2="151.41" y2="146.986" gradientUnits="userSpaceOnUse">
<stop stop-color="#6F01B9"/>
<stop offset="1" stop-color="#37015B"/>
</linearGradient>
<linearGradient id="paint2_linear_19_22" x1="60.5771" y1="64.8078" x2="60.5771" y2="175.975" gradientUnits="userSpaceOnUse">
<stop stop-color="#6F01B9"/>
<stop offset="1" stop-color="#37015B"/>
</linearGradient>
<linearGradient id="paint3_linear_19_22" x1="120.503" y1="111.46" x2="120.503" y2="191.074" gradientUnits="userSpaceOnUse">
<stop stop-color="#6F01B9"/>
<stop offset="1" stop-color="#37015B"/>
</linearGradient>
<linearGradient id="paint4_linear_19_22" x1="91.4872" y1="20.7195" x2="91.4872" y2="100.334" gradientUnits="userSpaceOnUse">
<stop stop-color="#6F01B9"/>
<stop offset="1" stop-color="#37015B"/>
</linearGradient>
<linearGradient id="paint5_linear_19_22" x1="105.992" y1="76.432" x2="105.992" y2="135.362" gradientUnits="userSpaceOnUse">
<stop stop-color="#6F01B9"/>
<stop offset="1" stop-color="#37015B"/>
</linearGradient>
<clipPath id="clip0_19_22">
<rect width="212" height="212" fill="white"/>
</clipPath>
</defs>
</svg>
